<svg xmlns="http://www.w3.org/2000/svg" id="Layer_1" data-name="Layer 1" viewBox="0 0 162.63 162.63"><defs><style>.cls-1{fill:#e4e1f4}.cls-2{fill:#b7a5ef}.cls-3{fill:#8056e9}.cls-4{fill:none;stroke:#8056e9;stroke-linecap:round;stroke-miterlimit:10;stroke-width:2.5px}.cls-5{fill:#fff}</style></defs><title>MonitorPrintIcons</title><circle cx="81.32" cy="81.32" r="81.32" class="cls-1"/><rect width="45.74" height="12.95" x="94.11" y="76.67" class="cls-2" rx="1.05"/><rect width="45.74" height="4.6" x="94.11" y="35.76" class="cls-2" rx="1.24"/><path d="M106.4,34.7v8.91a1.73,1.73,0,0,0,.4,1.09l4,4.88a1.3,1.3,0,0,0,2,0l4-4.86a1.8,1.8,0,0,0,.42-1.14V34.72a1.26,1.26,0,0,0-1.33-1.16h-8.16A1.24,1.24,0,0,0,106.4,34.7Z" class="cls-3"/><rect width="27.51" height="25.75" x="103.23" y="50.92" class="cls-3"/><path d="M85.35,44.94A27.08,27.08,0,0,1,95.43,61.4" class="cls-4"/><path d="M82,50.36a20,20,0,0,1,7.47,12.2" class="cls-4"/><path d="M89.51,62.56A20,20,0,0,0,82,50.36" class="cls-4"/><path d="M83.89,63.65a13.56,13.56,0,0,0-5-8.26" class="cls-4"/><rect width="45.81" height="86.91" x="28.79" y="46.66" class="cls-2" rx="3.91"/><rect width="41.49" height="73.31" x="30.95" y="53.46" class="cls-5"/><rect width="13.5" height="1.24" x="44.94" y="49.99" class="cls-1" rx=".62"/></svg>